<?xml version="1.0" encoding="UTF-8" standalone="no"?><!DOCTYPE svg PUBLIC "-//W3C//DTD SVG 1.1//EN" "http://www.w3.org/Graphics/SVG/1.1/DTD/svg11.dtd"><svg width="100%" height="100%" viewBox="0 0 100 100" version="1.1" xmlns="http://www.w3.org/2000/svg" xmlns:xlink="http://www.w3.org/1999/xlink" xml:space="preserve" xmlns:serif="http://www.serif.com/" style="fill-rule:evenodd;clip-rule:evenodd;stroke-linejoin:round;stroke-miterlimit:2;">
    <rect id="ic_mail" x="0" y="0" width="100" height="100" style="fill:none;"/>
    <path d="M3.494,17.003c0,-0.939 0.789,-2.003 1.5,-2.003c15.26,0.006 74.728,0.017 90,0c0.711,-0.001 1.499,1.064 1.5,2.003c0.024,11.288 0.018,54.738 0,66.016c-0.001,0.934 -0.792,1.982 -1.5,1.981c-15.242,-0.011 -74.738,-0.007 -90,0c-0.707,0 -1.499,-1.047 -1.5,-1.981c-0.011,-11.38 0.006,-54.629 0,-66.016Zm56.344,35.428l-8.974,8.429c-0.521,0.489 -1.218,0.489 -1.739,0l-8.974,-8.429l-30.459,28.607l80.605,0l-30.459,-28.607Zm-53.344,-31.61l0,58.358l31.068,-29.179l-31.068,-29.179Zm55.933,29.179l31.067,29.179l0,-58.358l-31.067,29.179Zm-52.735,-31.038l40.302,37.852l40.303,-37.852l-80.605,0Z"/>
</svg>