<?xml version="1.0" encoding="UTF-8" standalone="no"?><!DOCTYPE svg PUBLIC "-//W3C//DTD SVG 1.1//EN" "http://www.w3.org/Graphics/SVG/1.1/DTD/svg11.dtd"><svg width="100%" height="100%" viewBox="0 0 200 200" version="1.1" xmlns="http://www.w3.org/2000/svg" xmlns:xlink="http://www.w3.org/1999/xlink" xml:space="preserve" xmlns:serif="http://www.serif.com/" style="fill-rule:evenodd;clip-rule:evenodd;stroke-linejoin:round;stroke-miterlimit:2;"><rect id="ic_user" x="0" y="0" width="200" height="200" style="fill:none;"/><path d="M66,126.647c0,0 -7.946,-55.107 -6,-70.864c1.207,-9.776 8.47,-20.18 17.678,-23.678c10.387,-3.946 34.257,-3.946 44.644,0c9.208,3.498 16.471,13.902 17.678,23.678c1.946,15.757 -6,70.864 -6,70.864c0,0 21.231,9.633 26,17c4.769,7.368 5,27.208 5,27.208l-130,0c0,0 0.231,-19.84 5,-27.208c4.769,-7.367 26,-17 26,-17Zm21.5,-33.227c4.167,-2.5 20.833,-2.5 25,0c4.167,2.5 4.167,12.5 0,15c-4.167,2.5 -20.833,2.5 -25,0c-4.167,-2.5 -4.167,-12.5 0,-15Zm25.419,-31.044c2.5,-2.5 12.5,-2.5 15,0c2.5,2.5 2.5,12.5 0,15c-2.5,2.5 -12.5,2.5 -15,0c-2.5,-2.5 -2.5,-12.5 0,-15Zm-40.838,0c2.5,-2.5 12.5,-2.5 15,0c2.5,2.5 2.5,12.5 0,15c-2.5,2.5 -12.5,2.5 -15,0c-2.5,-2.5 -2.5,-12.5 0,-15Z" style="fill:#fff;"/></svg>